<svg xmlns="http://www.w3.org/2000/svg" viewBox="0 0 799.24 799.89"><defs><style>.cls-1{opacity:0.96;}.cls-2{fill:#000763;}.cls-3{fill:#ff5e5b;}.cls-4{fill:#fc4242;}.cls-5{fill:#fdeff7;}.cls-6{fill:#e7bf00;}</style></defs><title>Octotrails</title><g id="Layer_2" data-name="Layer 2"><g id="Layer_1-2" data-name="Layer 1"><g class="cls-1"><ellipse class="cls-2" cx="399.62" cy="399.95" rx="299.68" ry="300"/><path class="cls-2" d="M399.62,100C565.13,100,699.3,234.26,699.3,400S565.13,700,399.62,700,100,565.63,100,400,234.12,100,399.62,100m0-99.95A399.92,399.92,0,0,0,117,682.71,399.78,399.78,0,1,0,555.24,31.49,396.8,396.8,0,0,0,399.62,0Z"/></g><circle class="cls-3" cx="200.25" cy="496.74" r="51.66"/><circle class="cls-3" cx="199.22" cy="556.95" r="51.66"/><circle class="cls-3" cx="606.99" cy="497.71" r="51.66"/><circle class="cls-3" cx="580.26" cy="556.95" r="51.66"/><path class="cls-4" d="M422,381a24.38,24.38,0,0,0-.16,2.85V381Z"/><circle class="cls-4" cx="466.06" cy="403.62" r="40.64"/><circle class="cls-4" cx="468.18" cy="362.62" r="31.45"/><circle class="cls-4" cx="506.7" cy="508.59" r="28.98"/><circle class="cls-4" cx="506.7" cy="430.13" r="28.98"/><circle class="cls-4" cx="544.52" cy="461.58" r="54.78"/><circle class="cls-4" cx="453.19" cy="464.76" r="51.6"/><circle class="cls-4" cx="616.62" cy="443.91" r="32.87"/><circle class="cls-4" cx="668.57" cy="459.11" r="32.51"/><circle class="cls-4" cx="673.52" cy="422.35" r="23.33"/><circle class="cls-4" cx="668.57" cy="394.08" r="30.39"/><circle class="cls-4" cx="659.38" cy="362.27" r="21.21"/><circle class="cls-4" cx="645.95" cy="319.86" r="14.84"/><circle class="cls-4" cx="587.99" cy="305.01" r="11.31"/><circle class="cls-4" cx="595.06" cy="295.12" r="5.65"/><circle class="cls-4" cx="620.86" cy="300.42" r="13.08"/><circle class="cls-4" cx="620.5" cy="316.32" r="11.31"/><circle class="cls-4" cx="570.32" cy="319.15" r="5.65"/><circle class="cls-4" cx="630.05" cy="310.32" r="15.2"/><circle class="cls-4" cx="639.59" cy="336.12" r="17.67"/><circle class="cls-4" cx="661.5" cy="333.99" r="9.9"/><circle class="cls-4" cx="646.3" cy="416.34" r="27.21"/><circle class="cls-4" cx="403.86" cy="379.59" r="74.57"/><path class="cls-4" d="M382.3,380a26.59,26.59,0,0,1,.15,2.84V380Z"/><circle class="cls-4" cx="338.27" cy="402.66" r="40.64"/><circle class="cls-4" cx="336.15" cy="361.67" r="31.45"/><circle class="cls-4" cx="297.63" cy="507.63" r="28.98"/><circle class="cls-4" cx="297.63" cy="429.17" r="28.98"/><circle class="cls-4" cx="259.81" cy="460.62" r="54.78"/><circle class="cls-4" cx="350.19" cy="463.8" r="51.6"/><circle class="cls-4" cx="187.72" cy="442.95" r="32.87"/><circle class="cls-4" cx="135.76" cy="458.15" r="32.51"/><circle class="cls-4" cx="130.82" cy="421.39" r="23.33"/><circle class="cls-4" cx="135.76" cy="393.12" r="30.39"/><circle class="cls-4" cx="144.95" cy="361.31" r="21.21"/><circle class="cls-4" cx="158.38" cy="318.9" r="14.84"/><circle class="cls-4" cx="216.34" cy="304.06" r="11.31"/><circle class="cls-4" cx="209.28" cy="294.16" r="5.65"/><circle class="cls-4" cx="183.48" cy="299.46" r="13.08"/><circle class="cls-4" cx="183.83" cy="315.37" r="11.31"/><circle class="cls-4" cx="234.01" cy="318.19" r="5.65"/><circle class="cls-4" cx="174.29" cy="309.36" r="15.2"/><circle class="cls-4" cx="164.74" cy="335.16" r="17.67"/><circle class="cls-4" cx="142.83" cy="333.04" r="9.9"/><circle class="cls-4" cx="158.03" cy="415.39" r="27.21"/><circle class="cls-4" cx="400.48" cy="378.63" r="74.57"/><circle class="cls-4" cx="467.34" cy="405.08" r="40.97"/><circle class="cls-4" cx="469.48" cy="363.76" r="31.71"/><circle class="cls-4" cx="508.31" cy="510.89" r="29.21"/><circle class="cls-4" cx="508.31" cy="431.8" r="29.21"/><circle class="cls-4" cx="546.43" cy="463.51" r="55.22"/><circle class="cls-4" cx="454.37" cy="466.71" r="52.01"/><circle class="cls-4" cx="619.1" cy="445.69" r="33.13"/><circle class="cls-4" cx="671.47" cy="461.01" r="32.77"/><circle class="cls-4" cx="676.46" cy="423.96" r="23.51"/><circle class="cls-4" cx="671.47" cy="395.46" r="30.64"/><circle class="cls-4" cx="662.21" cy="363.4" r="21.37"/><circle class="cls-4" cx="649.03" cy="417.91" r="27.43"/><circle class="cls-4" cx="404.64" cy="380.86" r="75.17"/><circle class="cls-4" cx="339.9" cy="404.12" r="40.97"/><circle class="cls-4" cx="337.76" cy="362.79" r="31.71"/><circle class="cls-4" cx="298.93" cy="509.92" r="29.21"/><circle class="cls-4" cx="298.93" cy="430.84" r="29.21"/><circle class="cls-4" cx="260.81" cy="462.54" r="55.22"/><circle class="cls-4" cx="351.91" cy="465.75" r="52.01"/><circle class="cls-4" cx="188.14" cy="444.73" r="33.13"/><circle class="cls-4" cx="135.77" cy="460.05" r="32.77"/><circle class="cls-4" cx="130.78" cy="423" r="23.51"/><circle class="cls-4" cx="135.77" cy="394.5" r="30.64"/><circle class="cls-4" cx="145.03" cy="362.44" r="21.37"/><circle class="cls-4" cx="158.21" cy="416.94" r="27.43"/><circle class="cls-4" cx="402.6" cy="379.89" r="75.17"/><circle class="cls-4" cx="359.69" cy="508.67" r="40.97"/><circle class="cls-4" cx="252.11" cy="472.6" r="29.21"/><circle class="cls-4" cx="312.96" cy="523.13" r="29.21"/><circle class="cls-4" cx="264.21" cy="532.2" r="55.22"/><circle class="cls-4" cx="231.49" cy="599.49" r="33.13"/><circle class="cls-4" cx="186.26" cy="630" r="32.77"/><circle class="cls-4" cx="211.57" cy="657.5" r="23.51"/><circle class="cls-4" cx="236.69" cy="671.87" r="30.64"/><circle class="cls-4" cx="267.27" cy="685.22" r="21.37"/><circle class="cls-4" cx="308.81" cy="702.12" r="14.96"/><circle class="cls-4" cx="357.64" cy="666.73" r="11.4"/><circle class="cls-4" cx="360.77" cy="678.58" r="5.7"/><circle class="cls-4" cx="340.04" cy="695.17" r="13.18"/><circle class="cls-4" cx="327.94" cy="684.66" r="11.4"/><circle class="cls-4" cx="358.06" cy="643.92" r="5.7"/><circle class="cls-4" cx="326.45" cy="695.93" r="15.32"/><circle class="cls-4" cx="300.3" cy="686.72" r="17.81"/><circle class="cls-4" cx="287.83" cy="705.07" r="9.97"/><circle class="cls-4" cx="233.76" cy="640.26" r="27.43"/><circle class="cls-4" cx="419.79" cy="508.67" r="40.97"/><circle class="cls-4" cx="527.36" cy="472.6" r="29.21"/><circle class="cls-4" cx="466.52" cy="523.13" r="29.21"/><circle class="cls-4" cx="515.26" cy="532.2" r="55.22"/><circle class="cls-4" cx="547.98" cy="599.49" r="33.13"/><circle class="cls-4" cx="593.22" cy="630" r="32.77"/><circle class="cls-4" cx="204.15" cy="579.77" r="33.77"/><circle class="cls-4" cx="566.52" cy="591.33" r="33.77"/><circle class="cls-4" cx="567.9" cy="657.5" r="23.51"/><circle class="cls-4" cx="542.79" cy="671.87" r="30.64"/><circle class="cls-4" cx="512.2" cy="685.22" r="21.37"/><circle class="cls-4" cx="470.67" cy="702.12" r="14.96"/><circle class="cls-4" cx="421.83" cy="666.73" r="11.4"/><circle class="cls-4" cx="418.71" cy="678.58" r="5.7"/><circle class="cls-4" cx="439.43" cy="695.17" r="13.18"/><circle class="cls-4" cx="451.54" cy="684.66" r="11.4"/><circle class="cls-4" cx="421.42" cy="643.92" r="5.7"/><circle class="cls-4" cx="453.03" cy="695.93" r="15.32"/><circle class="cls-4" cx="479.18" cy="686.72" r="17.81"/><circle class="cls-4" cx="491.64" cy="705.07" r="9.97"/><circle class="cls-4" cx="545.72" cy="640.26" r="27.43"/><ellipse class="cls-5" cx="327.07" cy="355.65" rx="17.35" ry="11.08" transform="translate(-136.06 493.38) rotate(-63.96)"/><ellipse class="cls-5" cx="479.34" cy="356.61" rx="11.08" ry="17.35" transform="translate(-107.89 246.64) rotate(-26.04)"/><circle class="cls-4" cx="323.21" cy="353.24" r="8.19"/><circle class="cls-4" cx="482.23" cy="355.17" r="8.19"/><path class="cls-6" d="M675.5,275.67a6.12,6.12,0,0,1-5.33-3.12,350.1,350.1,0,0,0-48.74-66.83,326.18,326.18,0,0,0-64-53.31,303.14,303.14,0,0,0-76.33-34.8,293.16,293.16,0,0,0-83.31-12.12h-.19a293.78,293.78,0,0,0-83.14,12,302.82,302.82,0,0,0-76.39,34.69A325.82,325.82,0,0,0,174,205.37a351,351,0,0,0-48.83,66.77,6.11,6.11,0,1,1-10.64-6A362.43,362.43,0,0,1,165.1,197a338.61,338.61,0,0,1,66.47-55.21A314.66,314.66,0,0,1,311,105.75a305.62,305.62,0,0,1,86.59-12.48h.19a305.4,305.4,0,0,1,86.78,12.62A315.36,315.36,0,0,1,564,142.09a338.22,338.22,0,0,1,66.37,55.3,362.62,362.62,0,0,1,50.44,69.16,6.12,6.12,0,0,1-5.32,9.12Z"/><path class="cls-6" d="M610.26,312.4a6.12,6.12,0,0,1-5.34-3.12,275.65,275.65,0,0,0-38.28-52.53,251,251,0,0,0-49.27-41.09,228,228,0,0,0-57.5-26.25,218.53,218.53,0,0,0-62.11-9h-.05a219.62,219.62,0,0,0-62.09,8.94,228,228,0,0,0-57.53,26.15,251.23,251.23,0,0,0-49.33,41A275.73,275.73,0,0,0,190.41,309a6.11,6.11,0,1,1-10.64-6,287.56,287.56,0,0,1,40.06-54.81,263,263,0,0,1,51.73-43,240.11,240.11,0,0,1,60.61-27.55,231.83,231.83,0,0,1,65.55-9.44h0a231.48,231.48,0,0,1,65.58,9.54,240.79,240.79,0,0,1,60.58,27.65,263.71,263.71,0,0,1,51.67,43.09,287.74,287.74,0,0,1,40,54.86,6.12,6.12,0,0,1-5.31,9.12Z"/><path class="cls-6" d="M217.7,290,126.37,224c4.94-6.83,10.16-13.55,15.52-20l86.62,72.1C224.78,280.54,221.15,285.23,217.7,290Zm357.42-3.17c-3.51-4.71-7.21-9.33-11-13.75l85.52-73.42c5.46,6.36,10.78,13,15.82,19.76ZM244.51,258.58,165,178.66c6-6,12.32-11.82,18.72-17.33l73.55,85.4C252.94,250.49,248.63,254.47,244.51,258.58Zm303.37-2.71c-4.18-4-8.54-7.94-13-11.62l72.18-86.56c6.49,5.4,12.87,11.13,19,17ZM275.76,232.36,211,140.08c7-4.92,14.28-9.62,21.61-14L290.2,223C285.31,225.92,280.45,229.06,275.76,232.36Zm240.51-2.15c-4.75-3.22-9.65-6.27-14.57-9.09l55.9-97.86c7.4,4.22,14.75,8.8,21.85,13.61ZM310.62,212.29,263.55,109.88c7.85-3.61,15.93-6.93,24-9.89L326.3,205.83C321,207.75,315.76,209.93,310.62,212.29Zm170.51-1.52c-5.18-2.27-10.49-4.36-15.79-6.19l36.89-106.5c8.13,2.81,16.26,6,24.17,9.47Zm-133-11.61-27-109.43c8.41-2.07,17-3.82,25.54-5.2L364.61,195.8C359.1,196.69,353.55,197.82,348.12,199.16Zm95.3-.86c-5.47-1.24-11-2.27-16.58-3.06L442.77,83.66c8.57,1.22,17.19,2.82,25.65,4.74Zm-56.16-4.88L381.67,80.85c8.59-.43,17.36-.5,26-.23l-3.53,112.65C398.52,193.09,392.82,193.14,387.26,193.42Z"/></g></g></svg>