<svg xmlns:dc="http://purl.org/dc/elements/1.1/" xmlns:cc="http://creativecommons.org/ns#" xmlns:rdf="http://www.w3.org/1999/02/22-rdf-syntax-ns#" xmlns:svg="http://www.w3.org/2000/svg" xmlns="http://www.w3.org/2000/svg" xmlns:sodipodi="http://sodipodi.sourceforge.net/DTD/sodipodi-0.dtd" xmlns:inkscape="http://www.inkscape.org/namespaces/inkscape" viewBox="0 0 6.3499999 7.93750025" version="1.1" x="0px" y="0px"><g transform="translate(0,-290.64999)"><path d="m 5.0228972,291.44084 a 0.26460979,0.26460979 0 0 0 -0.25942,0.26975 v 0.3452 c -0.43059,-0.38652 -0.9925399,-0.61134 -1.5880199,-0.61134 -1.31195,0 -2.38072993,1.07136 -2.38072993,2.38332 a 0.26452646,0.26452646 0 1 0 0.52710003,0 c 0,-1.02606 0.8275699,-1.85363 1.8536299,-1.85363 0.4904201,0 0.9506199,0.19586 1.2919099,0.52916 H 3.9681773 a 0.26464824,0.26464824 0 1 0 0,0.52917 h 1.0588498 a 0.26460979,0.26460979 0 0 0 0.26562,-0.26355 v -1.05833 a 0.26460979,0.26460979 0 0 0 -0.2697499,-0.26975 z m 0.26561,2.11305 a 0.26452646,0.26452646 0 0 0 -0.2614801,0.26975 c 0,1.02606 -0.8254997,1.85156 -1.8515698,1.85156 -0.49066,0 -0.95116,-0.19572 -1.29242,-0.52916 h 0.49712 a 0.264845,0.264845 0 1 0 0,-0.52969 H 1.3238974 a 0.26460979,0.26460979 0 0 0 -0.26562,0.26407 v 1.05833 a 0.2646485,0.2646485 0 1 0 0.52917,0 v -0.34365 c 0.4309099,0.38532 0.9934099,0.60927 1.5880099,0.60927 1.31196,0 2.3807399,-1.06878 2.3807399,-2.38073 a 0.26452646,0.26452646 0 0 0 -0.26769,-0.26975 z" style="color:#000000;font-style:normal;font-variant:normal;font-weight:normal;font-stretch:normal;font-size:medium;line-height:normal;font-family:sans-serif;font-variant-ligatures:normal;font-variant-position:normal;font-variant-caps:normal;font-variant-numeric:normal;font-variant-alternates:normal;font-feature-settings:normal;text-indent:0;text-align:start;text-decoration:none;text-decoration-line:none;text-decoration-style:solid;text-decoration-color:#000000;letter-spacing:normal;word-spacing:normal;text-transform:none;writing-mode:lr-tb;direction:ltr;text-orientation:mixed;dominant-baseline:auto;baseline-shift:baseline;text-anchor:start;white-space:normal;shape-padding:0;clip-rule:nonzero;display:inline;overflow:visible;visibility:visible;opacity:1;isolation:auto;mix-blend-mode:normal;color-interpolation:sRGB;color-interpolation-filters:linearRGB;solid-color:#000000;solid-opacity:1;vector-effect:none;fill:#000000;fill-opacity:1;fill-rule:evenodd;stroke:none;stroke-width:0.5291667;stroke-linecap:round;stroke-linejoin:round;stroke-miterlimit:4;stroke-dasharray:none;stroke-dashoffset:0;stroke-opacity:1;color-rendering:auto;image-rendering:auto;shape-rendering:auto;text-rendering:auto;enable-background:accumulate"/></g><text x="0" y="21.3500002" fill="#000000" font-size="5px" font-weight="bold" font-family="'Helvetica Neue', Helvetica, Arial-Unicode, Arial, Sans-serif">Created by Nawicon Studio</text><text x="0" y="26.3500002" fill="#000000" font-size="5px" font-weight="bold" font-family="'Helvetica Neue', Helvetica, Arial-Unicode, Arial, Sans-serif">from the Noun Project</text></svg>