<?xml version="1.0" encoding="UTF-8" standalone="no"?>
<!DOCTYPE svg PUBLIC "-//W3C//DTD SVG 1.1//EN"
 "http://www.w3.org/Graphics/SVG/1.1/DTD/svg11.dtd">
<!-- Generated by graphviz version 2.40.1 (20161225.0304)
 -->
<!-- Title: dependencies Pages: 1 -->
<svg width="547pt" height="284pt"
 viewBox="0.00 0.00 547.00 284.00" xmlns="http://www.w3.org/2000/svg" xmlns:xlink="http://www.w3.org/1999/xlink">
<g id="graph0" class="graph" transform="scale(1 1) rotate(0) translate(4 280)">
<title>dependencies</title>
<polygon fill="#ffffff" stroke="transparent" points="-4,4 -4,-280 543,-280 543,4 -4,4"/>
<text text-anchor="start" x="248.5091" y="-42.4" font-family="sans-serif" font-weight="bold" font-size="14.00" fill="#000000">Legend</text>
<polygon fill="#ffffb3" stroke="transparent" points="35.5,-10 35.5,-30 55.5,-30 55.5,-10 35.5,-10"/>
<text text-anchor="start" x="59.129" y="-15.4" font-family="sans-serif" font-size="14.00" fill="#000000"> &#160;Declarations</text>
<polygon fill="#8dd3c7" stroke="transparent" points="148.5,-10 148.5,-30 168.5,-30 168.5,-10 148.5,-10"/>
<text text-anchor="start" x="172.2251" y="-15.4" font-family="sans-serif" font-size="14.00" fill="#000000"> &#160;Module</text>
<polygon fill="#80b1d3" stroke="transparent" points="234.5,-10 234.5,-30 254.5,-30 254.5,-10 234.5,-10"/>
<text text-anchor="start" x="258.2812" y="-15.4" font-family="sans-serif" font-size="14.00" fill="#000000"> &#160;Bootstrap</text>
<polygon fill="#fdb462" stroke="transparent" points="331.5,-10 331.5,-30 351.5,-30 351.5,-10 331.5,-10"/>
<text text-anchor="start" x="355.1732" y="-15.4" font-family="sans-serif" font-size="14.00" fill="#000000"> &#160;Providers</text>
<polygon fill="#fb8072" stroke="transparent" points="427.5,-10 427.5,-30 447.5,-30 447.5,-10 427.5,-10"/>
<text text-anchor="start" x="451.2258" y="-15.4" font-family="sans-serif" font-size="14.00" fill="#000000"> &#160;Exports</text>
<g id="clust1" class="cluster">
<title>cluster_SharedModule</title>
<polygon fill="none" stroke="#000000" stroke-dasharray="1,5" points="8,-70 8,-268 531,-268 531,-70 8,-70"/>
</g>
<g id="clust2" class="cluster">
<title>cluster_SharedModule_declarations</title>
<polygon fill="none" stroke="#000000" points="167,-78 167,-130 523,-130 523,-78 167,-78"/>
</g>
<g id="clust5" class="cluster">
<title>cluster_SharedModule_imports</title>
<polygon fill="none" stroke="#000000" points="21,-78 21,-130 159,-130 159,-78 21,-78"/>
</g>
<g id="clust6" class="cluster">
<title>cluster_SharedModule_exports</title>
<polygon fill="none" stroke="#000000" points="16,-208 16,-260 523,-260 523,-208 16,-208"/>
</g>
<!-- PageNotFoundComponent -->
<g id="node1" class="node">
<title>PageNotFoundComponent</title>
<polygon fill="#ffffb3" stroke="#000000" points="514.8243,-122 349.1757,-122 349.1757,-86 514.8243,-86 514.8243,-122"/>
<text text-anchor="middle" x="432" y="-99.8" font-family="Times,serif" font-size="14.00" fill="#000000">PageNotFoundComponent</text>
</g>
<!-- SharedModule -->
<g id="node3" class="node">
<title>SharedModule</title>
<polygon fill="#8dd3c7" stroke="#000000" points="319.4231,-187 316.4231,-191 295.4231,-191 292.4231,-187 220.5769,-187 220.5769,-151 319.4231,-151 319.4231,-187"/>
<text text-anchor="middle" x="270" y="-164.8" font-family="Times,serif" font-size="14.00" fill="#000000">SharedModule</text>
</g>
<!-- PageNotFoundComponent&#45;&gt;SharedModule -->
<g id="edge1" class="edge">
<title>PageNotFoundComponent&#45;&gt;SharedModule</title>
<path fill="none" stroke="#000000" d="M360.375,-122.0225C360.375,-139.3734 360.375,-163 360.375,-163 360.375,-163 329.4183,-163 329.4183,-163"/>
<polygon fill="#000000" stroke="#000000" points="329.4183,-159.5001 319.4183,-163 329.4183,-166.5001 329.4183,-159.5001"/>
</g>
<!-- RangeValidatorDirective -->
<g id="node2" class="node">
<title>RangeValidatorDirective</title>
<polygon fill="#ffffb3" stroke="#000000" points="331.2171,-122 174.7829,-122 174.7829,-86 331.2171,-86 331.2171,-122"/>
<text text-anchor="middle" x="253" y="-99.8" font-family="Times,serif" font-size="14.00" fill="#000000">RangeValidatorDirective</text>
</g>
<!-- RangeValidatorDirective&#45;&gt;SharedModule -->
<g id="edge2" class="edge">
<title>RangeValidatorDirective&#45;&gt;SharedModule</title>
<path fill="none" stroke="#000000" d="M270,-122.1061C270,-122.1061 270,-140.991 270,-140.991"/>
<polygon fill="#000000" stroke="#000000" points="266.5001,-140.9909 270,-150.991 273.5001,-140.991 266.5001,-140.9909"/>
</g>
<!-- MatDesignModule  -->
<g id="node5" class="node">
<title>MatDesignModule </title>
<polygon fill="#fb8072" stroke="#000000" points="514.7563,-252 389.2437,-252 389.2437,-216 514.7563,-216 514.7563,-252"/>
<text text-anchor="middle" x="452" y="-229.8" font-family="Times,serif" font-size="14.00" fill="#000000">MatDesignModule </text>
</g>
<!-- SharedModule&#45;&gt;MatDesignModule  -->
<g id="edge4" class="edge">
<title>SharedModule&#45;&gt;MatDesignModule </title>
<path fill="none" stroke="#000000" stroke-dasharray="5,2" d="M319.2518,-175C373.1519,-175 452,-175 452,-175 452,-175 452,-205.9775 452,-205.9775"/>
<polygon fill="#000000" stroke="#000000" points="448.5001,-205.9774 452,-215.9775 455.5001,-205.9775 448.5001,-205.9774"/>
</g>
<!-- PageNotFoundComponent  -->
<g id="node6" class="node">
<title>PageNotFoundComponent </title>
<polygon fill="#fb8072" stroke="#000000" points="371.3241,-252 202.6759,-252 202.6759,-216 371.3241,-216 371.3241,-252"/>
<text text-anchor="middle" x="287" y="-229.8" font-family="Times,serif" font-size="14.00" fill="#000000">PageNotFoundComponent </text>
</g>
<!-- SharedModule&#45;&gt;PageNotFoundComponent  -->
<g id="edge5" class="edge">
<title>SharedModule&#45;&gt;PageNotFoundComponent </title>
<path fill="none" stroke="#000000" stroke-dasharray="5,2" d="M270,-187.1061C270,-187.1061 270,-205.991 270,-205.991"/>
<polygon fill="#000000" stroke="#000000" points="266.5001,-205.9909 270,-215.991 273.5001,-205.991 266.5001,-205.9909"/>
</g>
<!-- RangeValidatorDirective  -->
<g id="node7" class="node">
<title>RangeValidatorDirective </title>
<polygon fill="#fb8072" stroke="#000000" points="184.2169,-252 23.7831,-252 23.7831,-216 184.2169,-216 184.2169,-252"/>
<text text-anchor="middle" x="104" y="-229.8" font-family="Times,serif" font-size="14.00" fill="#000000">RangeValidatorDirective </text>
</g>
<!-- SharedModule&#45;&gt;RangeValidatorDirective  -->
<g id="edge6" class="edge">
<title>SharedModule&#45;&gt;RangeValidatorDirective </title>
<path fill="none" stroke="#000000" stroke-dasharray="5,2" d="M220.7095,-175C199.454,-175 179.375,-175 179.375,-175 179.375,-175 179.375,-205.9775 179.375,-205.9775"/>
<polygon fill="#000000" stroke="#000000" points="175.8751,-205.9774 179.375,-215.9775 182.8751,-205.9775 175.8751,-205.9774"/>
</g>
<!-- MatDesignModule -->
<g id="node4" class="node">
<title>MatDesignModule</title>
<polygon fill="#8dd3c7" stroke="#000000" points="150.7562,-122 147.7562,-126 126.7562,-126 123.7562,-122 29.2438,-122 29.2438,-86 150.7562,-86 150.7562,-122"/>
<text text-anchor="middle" x="90" y="-99.8" font-family="Times,serif" font-size="14.00" fill="#000000">MatDesignModule</text>
</g>
<!-- MatDesignModule&#45;&gt;SharedModule -->
<g id="edge3" class="edge">
<title>MatDesignModule&#45;&gt;SharedModule</title>
<path fill="none" stroke="#000000" d="M90,-122.0225C90,-139.3734 90,-163 90,-163 90,-163 210.3377,-163 210.3377,-163"/>
<polygon fill="#000000" stroke="#000000" points="210.3378,-166.5001 220.3377,-163 210.3377,-159.5001 210.3378,-166.5001"/>
</g>
</g>
</svg>
