<svg xmlns="http://www.w3.org/2000/svg" xmlns:xlink="http://www.w3.org/1999/xlink" version="1.1" x="0px" y="0px" viewBox="-9.5 5.5 24 30" enable-background="new -9.5 5.5 24 24" xml:space="preserve"><g><path d="M1.5,11.5c-0.552,0-1,0.447-1,1v6c0,0.553,0.448,1,1,1h4c0.552,0,1-0.447,1-1s-0.448-1-1-1h-3v-5   C2.5,11.947,2.052,11.5,1.5,11.5z"/><path d="M9.571,10.429C7.682,8.54,5.171,7.5,2.5,7.5s-5.182,1.04-7.071,2.929C-6.46,12.318-7.5,14.829-7.5,17.5h-2l3,4l3-4h-2   c0-2.137,0.832-4.146,2.343-5.657S0.363,9.5,2.5,9.5s4.146,0.832,5.657,2.343S10.5,15.363,10.5,17.5s-0.832,4.146-2.343,5.657   c-3.119,3.119-8.194,3.119-11.313,0c-0.391-0.391-1.023-0.391-1.414,0s-0.391,1.023,0,1.414c1.95,1.95,4.51,2.924,7.071,2.924   c2.561,0,5.122-0.975,7.071-2.924c1.889-1.889,2.929-4.4,2.929-7.071S11.46,12.317,9.571,10.429z"/></g><text x="-9.5" y="44.5" fill="#000000" font-size="5px" font-weight="bold" font-family="'Helvetica Neue', Helvetica, Arial-Unicode, Arial, Sans-serif">Created by Rflor</text><text x="-9.5" y="49.5" fill="#000000" font-size="5px" font-weight="bold" font-family="'Helvetica Neue', Helvetica, Arial-Unicode, Arial, Sans-serif">from the Noun Project</text></svg>