<svg xmlns="http://www.w3.org/2000/svg" viewBox="0 0 52 85.97"><title>Asset 1</title><g id="Layer_2" data-name="Layer 2"><g id="Layer_1-2" data-name="Layer 1"><path d="M26,0C11.73,0,0,11.13,0,27c0,5.94,2.27,14.12,4.66,18.87l19.56,39a2,2,0,0,0,2.69.88,2.05,2.05,0,0,0,.87-.88l19.56-39C49.73,41.12,52,32.94,52,27,52,11.13,40.27,0,26,0Zm0,4c12.24,0,22,9.05,22,23,0,4.81-2.25,13.16-4.22,17.09L26,79.53,8.22,44.09C6.25,40.16,4,31.81,4,27,4,13.05,13.76,4,26,4Zm0,8A14,14,0,1,0,40,26,14,14,0,0,0,26,12Zm0,4A10,10,0,1,1,16,26,10,10,0,0,1,26,16Z"/></g></g></svg>