<?xml version="1.0" encoding="UTF-8" standalone="no"?>
<!DOCTYPE svg PUBLIC "-//W3C//DTD SVG 1.1//EN"
 "http://www.w3.org/Graphics/SVG/1.1/DTD/svg11.dtd">
<!-- Generated by graphviz version 2.40.1 (20161225.0304)
 -->
<!-- Title: dependencies Pages: 1 -->
<svg width="1089pt" height="284pt"
 viewBox="0.00 0.00 1089.00 284.00" xmlns="http://www.w3.org/2000/svg" xmlns:xlink="http://www.w3.org/1999/xlink">
<g id="graph0" class="graph" transform="scale(1 1) rotate(0) translate(4 280)">
<title>dependencies</title>
<polygon fill="#ffffff" stroke="transparent" points="-4,4 -4,-280 1085,-280 1085,4 -4,4"/>
<text text-anchor="start" x="519.5091" y="-42.4" font-family="sans-serif" font-weight="bold" font-size="14.00" fill="#000000">Legend</text>
<polygon fill="#ffffb3" stroke="transparent" points="306.5,-10 306.5,-30 326.5,-30 326.5,-10 306.5,-10"/>
<text text-anchor="start" x="330.129" y="-15.4" font-family="sans-serif" font-size="14.00" fill="#000000"> &#160;Declarations</text>
<polygon fill="#8dd3c7" stroke="transparent" points="419.5,-10 419.5,-30 439.5,-30 439.5,-10 419.5,-10"/>
<text text-anchor="start" x="443.2251" y="-15.4" font-family="sans-serif" font-size="14.00" fill="#000000"> &#160;Module</text>
<polygon fill="#80b1d3" stroke="transparent" points="505.5,-10 505.5,-30 525.5,-30 525.5,-10 505.5,-10"/>
<text text-anchor="start" x="529.2812" y="-15.4" font-family="sans-serif" font-size="14.00" fill="#000000"> &#160;Bootstrap</text>
<polygon fill="#fdb462" stroke="transparent" points="602.5,-10 602.5,-30 622.5,-30 622.5,-10 602.5,-10"/>
<text text-anchor="start" x="626.1732" y="-15.4" font-family="sans-serif" font-size="14.00" fill="#000000"> &#160;Providers</text>
<polygon fill="#fb8072" stroke="transparent" points="698.5,-10 698.5,-30 718.5,-30 718.5,-10 698.5,-10"/>
<text text-anchor="start" x="722.2258" y="-15.4" font-family="sans-serif" font-size="14.00" fill="#000000"> &#160;Exports</text>
<g id="clust1" class="cluster">
<title>cluster_QuestionsModule</title>
<polygon fill="none" stroke="#000000" stroke-dasharray="1,5" points="8,-70 8,-268 1073,-268 1073,-70 8,-70"/>
</g>
<g id="clust2" class="cluster">
<title>cluster_QuestionsModule_declarations</title>
<polygon fill="none" stroke="#000000" points="340,-78 340,-130 1065,-130 1065,-78 340,-78"/>
</g>
<g id="clust8" class="cluster">
<title>cluster_QuestionsModule_imports</title>
<polygon fill="none" stroke="#000000" points="16,-78 16,-130 332,-130 332,-78 16,-78"/>
</g>
<g id="clust9" class="cluster">
<title>cluster_QuestionsModule_exports</title>
<polygon fill="none" stroke="#000000" points="460,-208 460,-260 640,-260 640,-208 460,-208"/>
</g>
<!-- BooleanComponent -->
<g id="node1" class="node">
<title>BooleanComponent</title>
<polygon fill="#ffffb3" stroke="#000000" points="1056.9888,-122 929.0112,-122 929.0112,-86 1056.9888,-86 1056.9888,-122"/>
<text text-anchor="middle" x="993" y="-99.8" font-family="Times,serif" font-size="14.00" fill="#000000">BooleanComponent</text>
</g>
<!-- QuestionsModule -->
<g id="node6" class="node">
<title>QuestionsModule</title>
<polygon fill="#8dd3c7" stroke="#000000" points="607.5423,-187 604.5423,-191 583.5423,-191 580.5423,-187 492.4577,-187 492.4577,-151 607.5423,-151 607.5423,-187"/>
<text text-anchor="middle" x="550" y="-164.8" font-family="Times,serif" font-size="14.00" fill="#000000">QuestionsModule</text>
</g>
<!-- BooleanComponent&#45;&gt;QuestionsModule -->
<g id="edge1" class="edge">
<title>BooleanComponent&#45;&gt;QuestionsModule</title>
<path fill="none" stroke="#000000" d="M993,-122.2921C993,-144.2057 993,-178 993,-178 993,-178 617.9145,-178 617.9145,-178"/>
<polygon fill="#000000" stroke="#000000" points="617.9145,-174.5001 607.9145,-178 617.9145,-181.5001 617.9145,-174.5001"/>
</g>
<!-- MultipleComponent -->
<g id="node2" class="node">
<title>MultipleComponent</title>
<polygon fill="#ffffb3" stroke="#000000" points="910.5548,-122 781.4452,-122 781.4452,-86 910.5548,-86 910.5548,-122"/>
<text text-anchor="middle" x="846" y="-99.8" font-family="Times,serif" font-size="14.00" fill="#000000">MultipleComponent</text>
</g>
<!-- MultipleComponent&#45;&gt;QuestionsModule -->
<g id="edge2" class="edge">
<title>MultipleComponent&#45;&gt;QuestionsModule</title>
<path fill="none" stroke="#000000" d="M846,-122.1061C846,-141.3391 846,-169 846,-169 846,-169 617.7745,-169 617.7745,-169"/>
<polygon fill="#000000" stroke="#000000" points="617.7745,-165.5001 607.7745,-169 617.7744,-172.5001 617.7745,-165.5001"/>
</g>
<!-- NumberComponent -->
<g id="node3" class="node">
<title>NumberComponent</title>
<polygon fill="#ffffb3" stroke="#000000" points="763.705,-122 636.295,-122 636.295,-86 763.705,-86 763.705,-122"/>
<text text-anchor="middle" x="700" y="-99.8" font-family="Times,serif" font-size="14.00" fill="#000000">NumberComponent</text>
</g>
<!-- NumberComponent&#45;&gt;QuestionsModule -->
<g id="edge3" class="edge">
<title>NumberComponent&#45;&gt;QuestionsModule</title>
<path fill="none" stroke="#000000" d="M700,-122.027C700,-138.3976 700,-160 700,-160 700,-160 617.5649,-160 617.5649,-160"/>
<polygon fill="#000000" stroke="#000000" points="617.565,-156.5001 607.5649,-160 617.5649,-163.5001 617.565,-156.5001"/>
</g>
<!-- OverviewComponent -->
<g id="node4" class="node">
<title>OverviewComponent</title>
<polygon fill="#ffffb3" stroke="#000000" points="618.0268,-122 481.9732,-122 481.9732,-86 618.0268,-86 618.0268,-122"/>
<text text-anchor="middle" x="550" y="-99.8" font-family="Times,serif" font-size="14.00" fill="#000000">OverviewComponent</text>
</g>
<!-- OverviewComponent&#45;&gt;QuestionsModule -->
<g id="edge4" class="edge">
<title>OverviewComponent&#45;&gt;QuestionsModule</title>
<path fill="none" stroke="#000000" d="M550,-122.1061C550,-122.1061 550,-140.991 550,-140.991"/>
<polygon fill="#000000" stroke="#000000" points="546.5001,-140.9909 550,-150.991 553.5001,-140.991 546.5001,-140.9909"/>
</g>
<!-- StringComponent -->
<g id="node5" class="node">
<title>StringComponent</title>
<polygon fill="#ffffb3" stroke="#000000" points="463.5576,-122 348.4424,-122 348.4424,-86 463.5576,-86 463.5576,-122"/>
<text text-anchor="middle" x="406" y="-99.8" font-family="Times,serif" font-size="14.00" fill="#000000">StringComponent</text>
</g>
<!-- StringComponent&#45;&gt;QuestionsModule -->
<g id="edge5" class="edge">
<title>StringComponent&#45;&gt;QuestionsModule</title>
<path fill="none" stroke="#000000" d="M406,-122.027C406,-138.3976 406,-160 406,-160 406,-160 482.2594,-160 482.2594,-160"/>
<polygon fill="#000000" stroke="#000000" points="482.2594,-163.5001 492.2594,-160 482.2594,-156.5001 482.2594,-163.5001"/>
</g>
<!-- QuestionsRoutingModule  -->
<g id="node9" class="node">
<title>QuestionsRoutingModule </title>
<polygon fill="#fb8072" stroke="#000000" points="632.1593,-252 467.8407,-252 467.8407,-216 632.1593,-216 632.1593,-252"/>
<text text-anchor="middle" x="550" y="-229.8" font-family="Times,serif" font-size="14.00" fill="#000000">QuestionsRoutingModule </text>
</g>
<!-- QuestionsModule&#45;&gt;QuestionsRoutingModule  -->
<g id="edge8" class="edge">
<title>QuestionsModule&#45;&gt;QuestionsRoutingModule </title>
<path fill="none" stroke="#000000" stroke-dasharray="5,2" d="M550,-187.1061C550,-187.1061 550,-205.991 550,-205.991"/>
<polygon fill="#000000" stroke="#000000" points="546.5001,-205.9909 550,-215.991 553.5001,-205.991 546.5001,-205.9909"/>
</g>
<!-- MatDesignModule -->
<g id="node7" class="node">
<title>MatDesignModule</title>
<polygon fill="#8dd3c7" stroke="#000000" points="323.7562,-122 320.7562,-126 299.7562,-126 296.7562,-122 202.2438,-122 202.2438,-86 323.7562,-86 323.7562,-122"/>
<text text-anchor="middle" x="263" y="-99.8" font-family="Times,serif" font-size="14.00" fill="#000000">MatDesignModule</text>
</g>
<!-- MatDesignModule&#45;&gt;QuestionsModule -->
<g id="edge6" class="edge">
<title>MatDesignModule&#45;&gt;QuestionsModule</title>
<path fill="none" stroke="#000000" d="M263,-122.1061C263,-141.3391 263,-169 263,-169 263,-169 482.2665,-169 482.2665,-169"/>
<polygon fill="#000000" stroke="#000000" points="482.2665,-172.5001 492.2665,-169 482.2665,-165.5001 482.2665,-172.5001"/>
</g>
<!-- QuestionsRoutingModule -->
<g id="node8" class="node">
<title>QuestionsRoutingModule</title>
<polygon fill="#8dd3c7" stroke="#000000" points="184.1596,-122 181.1596,-126 160.1596,-126 157.1596,-122 23.8404,-122 23.8404,-86 184.1596,-86 184.1596,-122"/>
<text text-anchor="middle" x="104" y="-99.8" font-family="Times,serif" font-size="14.00" fill="#000000">QuestionsRoutingModule</text>
</g>
<!-- QuestionsRoutingModule&#45;&gt;QuestionsModule -->
<g id="edge7" class="edge">
<title>QuestionsRoutingModule&#45;&gt;QuestionsModule</title>
<path fill="none" stroke="#000000" d="M104,-122.2921C104,-144.2057 104,-178 104,-178 104,-178 482.1505,-178 482.1505,-178"/>
<polygon fill="#000000" stroke="#000000" points="482.1506,-181.5001 492.1505,-178 482.1505,-174.5001 482.1506,-181.5001"/>
</g>
</g>
</svg>
