<?xml version="1.0" encoding="UTF-8" standalone="no"?>
<!DOCTYPE svg PUBLIC "-//W3C//DTD SVG 1.1//EN"
 "http://www.w3.org/Graphics/SVG/1.1/DTD/svg11.dtd">
<!-- Generated by graphviz version 2.40.1 (20161225.0304)
 -->
<!-- Title: dependencies Pages: 1 -->
<svg width="1345pt" height="284pt"
 viewBox="0.00 0.00 1345.00 284.00" xmlns="http://www.w3.org/2000/svg" xmlns:xlink="http://www.w3.org/1999/xlink">
<g id="graph0" class="graph" transform="scale(1 1) rotate(0) translate(4 280)">
<title>dependencies</title>
<polygon fill="#ffffff" stroke="transparent" points="-4,4 -4,-280 1341,-280 1341,4 -4,4"/>
<text text-anchor="start" x="647.5091" y="-42.4" font-family="sans-serif" font-weight="bold" font-size="14.00" fill="#000000">Legend</text>
<polygon fill="#ffffb3" stroke="transparent" points="434.5,-10 434.5,-30 454.5,-30 454.5,-10 434.5,-10"/>
<text text-anchor="start" x="458.129" y="-15.4" font-family="sans-serif" font-size="14.00" fill="#000000"> &#160;Declarations</text>
<polygon fill="#8dd3c7" stroke="transparent" points="547.5,-10 547.5,-30 567.5,-30 567.5,-10 547.5,-10"/>
<text text-anchor="start" x="571.2251" y="-15.4" font-family="sans-serif" font-size="14.00" fill="#000000"> &#160;Module</text>
<polygon fill="#80b1d3" stroke="transparent" points="633.5,-10 633.5,-30 653.5,-30 653.5,-10 633.5,-10"/>
<text text-anchor="start" x="657.2812" y="-15.4" font-family="sans-serif" font-size="14.00" fill="#000000"> &#160;Bootstrap</text>
<polygon fill="#fdb462" stroke="transparent" points="730.5,-10 730.5,-30 750.5,-30 750.5,-10 730.5,-10"/>
<text text-anchor="start" x="754.1732" y="-15.4" font-family="sans-serif" font-size="14.00" fill="#000000"> &#160;Providers</text>
<polygon fill="#fb8072" stroke="transparent" points="826.5,-10 826.5,-30 846.5,-30 846.5,-10 826.5,-10"/>
<text text-anchor="start" x="850.2258" y="-15.4" font-family="sans-serif" font-size="14.00" fill="#000000"> &#160;Exports</text>
<g id="clust1" class="cluster">
<title>cluster_StopsModule</title>
<polygon fill="none" stroke="#000000" stroke-dasharray="1,5" points="8,-70 8,-268 1329,-268 1329,-70 8,-70"/>
</g>
<g id="clust2" class="cluster">
<title>cluster_StopsModule_declarations</title>
<polygon fill="none" stroke="#000000" points="444,-78 444,-130 1321,-130 1321,-78 444,-78"/>
</g>
<g id="clust9" class="cluster">
<title>cluster_StopsModule_imports</title>
<polygon fill="none" stroke="#000000" points="16,-78 16,-130 436,-130 436,-78 16,-78"/>
</g>
<g id="clust10" class="cluster">
<title>cluster_StopsModule_exports</title>
<polygon fill="none" stroke="#000000" points="591,-208 591,-260 719,-260 719,-208 591,-208"/>
</g>
<!-- DetailComponent -->
<g id="node1" class="node">
<title>DetailComponent</title>
<polygon fill="#ffffb3" stroke="#000000" points="1312.5409,-122 1197.4591,-122 1197.4591,-86 1312.5409,-86 1312.5409,-122"/>
<text text-anchor="middle" x="1255" y="-99.8" font-family="Times,serif" font-size="14.00" fill="#000000">DetailComponent</text>
</g>
<!-- StopsModule -->
<g id="node7" class="node">
<title>StopsModule</title>
<polygon fill="#8dd3c7" stroke="#000000" points="700.1682,-187 697.1682,-191 676.1682,-191 673.1682,-187 609.8318,-187 609.8318,-151 700.1682,-151 700.1682,-187"/>
<text text-anchor="middle" x="655" y="-164.8" font-family="Times,serif" font-size="14.00" fill="#000000">StopsModule</text>
</g>
<!-- DetailComponent&#45;&gt;StopsModule -->
<g id="edge1" class="edge">
<title>DetailComponent&#45;&gt;StopsModule</title>
<path fill="none" stroke="#000000" d="M1255,-122.0109C1255,-144.4852 1255,-180 1255,-180 1255,-180 710.59,-180 710.59,-180"/>
<polygon fill="#000000" stroke="#000000" points="710.59,-176.5001 700.59,-180 710.5899,-183.5001 710.59,-176.5001"/>
</g>
<!-- HistoryComponent -->
<g id="node2" class="node">
<title>HistoryComponent</title>
<polygon fill="#ffffb3" stroke="#000000" points="1179.8258,-122 1056.1742,-122 1056.1742,-86 1179.8258,-86 1179.8258,-122"/>
<text text-anchor="middle" x="1118" y="-99.8" font-family="Times,serif" font-size="14.00" fill="#000000">HistoryComponent</text>
</g>
<!-- HistoryComponent&#45;&gt;StopsModule -->
<g id="edge2" class="edge">
<title>HistoryComponent&#45;&gt;StopsModule</title>
<path fill="none" stroke="#000000" d="M1118,-122.1289C1118,-142.5724 1118,-173 1118,-173 1118,-173 710.2374,-173 710.2374,-173"/>
<polygon fill="#000000" stroke="#000000" points="710.2374,-169.5001 700.2374,-173 710.2374,-176.5001 710.2374,-169.5001"/>
</g>
<!-- ImageDetailComponent -->
<g id="node3" class="node">
<title>ImageDetailComponent</title>
<polygon fill="#ffffb3" stroke="#000000" points="1038.0212,-122 887.9788,-122 887.9788,-86 1038.0212,-86 1038.0212,-122"/>
<text text-anchor="middle" x="963" y="-99.8" font-family="Times,serif" font-size="14.00" fill="#000000">ImageDetailComponent</text>
</g>
<!-- ImageDetailComponent&#45;&gt;StopsModule -->
<g id="edge3" class="edge">
<title>ImageDetailComponent&#45;&gt;StopsModule</title>
<path fill="none" stroke="#000000" d="M963,-122.2667C963,-140.5552 963,-166 963,-166 963,-166 710.4465,-166 710.4465,-166"/>
<polygon fill="#000000" stroke="#000000" points="710.4465,-162.5001 700.4465,-166 710.4464,-169.5001 710.4465,-162.5001"/>
</g>
<!-- LocationComponent -->
<g id="node4" class="node">
<title>LocationComponent</title>
<polygon fill="#ffffb3" stroke="#000000" points="869.5954,-122 738.4046,-122 738.4046,-86 869.5954,-86 869.5954,-122"/>
<text text-anchor="middle" x="804" y="-99.8" font-family="Times,serif" font-size="14.00" fill="#000000">LocationComponent</text>
</g>
<!-- LocationComponent&#45;&gt;StopsModule -->
<g id="edge4" class="edge">
<title>LocationComponent&#45;&gt;StopsModule</title>
<path fill="none" stroke="#000000" d="M804,-122.0091C804,-138.0494 804,-159 804,-159 804,-159 710.5145,-159 710.5145,-159"/>
<polygon fill="#000000" stroke="#000000" points="710.5146,-155.5001 700.5145,-159 710.5145,-162.5001 710.5146,-155.5001"/>
</g>
<!-- MapBoxComponent -->
<g id="node5" class="node">
<title>MapBoxComponent</title>
<polygon fill="#ffffb3" stroke="#000000" points="720.3286,-122 589.6714,-122 589.6714,-86 720.3286,-86 720.3286,-122"/>
<text text-anchor="middle" x="655" y="-99.8" font-family="Times,serif" font-size="14.00" fill="#000000">MapBoxComponent</text>
</g>
<!-- MapBoxComponent&#45;&gt;StopsModule -->
<g id="edge5" class="edge">
<title>MapBoxComponent&#45;&gt;StopsModule</title>
<path fill="none" stroke="#000000" d="M655,-122.1061C655,-122.1061 655,-140.991 655,-140.991"/>
<polygon fill="#000000" stroke="#000000" points="651.5001,-140.9909 655,-150.991 658.5001,-140.991 651.5001,-140.9909"/>
</g>
<!-- SearchComponent -->
<g id="node6" class="node">
<title>SearchComponent</title>
<polygon fill="#ffffb3" stroke="#000000" points="571.9201,-122 452.0799,-122 452.0799,-86 571.9201,-86 571.9201,-122"/>
<text text-anchor="middle" x="512" y="-99.8" font-family="Times,serif" font-size="14.00" fill="#000000">SearchComponent</text>
</g>
<!-- SearchComponent&#45;&gt;StopsModule -->
<g id="edge6" class="edge">
<title>SearchComponent&#45;&gt;StopsModule</title>
<path fill="none" stroke="#000000" d="M512,-122.0091C512,-138.0494 512,-159 512,-159 512,-159 599.7539,-159 599.7539,-159"/>
<polygon fill="#000000" stroke="#000000" points="599.7539,-162.5001 609.7539,-159 599.7539,-155.5001 599.7539,-162.5001"/>
</g>
<!-- CarouselModule  -->
<g id="node11" class="node">
<title>CarouselModule </title>
<polygon fill="#fb8072" stroke="#000000" points="711.3116,-252 598.6884,-252 598.6884,-216 711.3116,-216 711.3116,-252"/>
<text text-anchor="middle" x="655" y="-229.8" font-family="Times,serif" font-size="14.00" fill="#000000">CarouselModule </text>
</g>
<!-- StopsModule&#45;&gt;CarouselModule  -->
<g id="edge10" class="edge">
<title>StopsModule&#45;&gt;CarouselModule </title>
<path fill="none" stroke="#000000" stroke-dasharray="5,2" d="M655,-187.1061C655,-187.1061 655,-205.991 655,-205.991"/>
<polygon fill="#000000" stroke="#000000" points="651.5001,-205.9909 655,-215.991 658.5001,-205.991 651.5001,-205.9909"/>
</g>
<!-- CarouselModule -->
<g id="node8" class="node">
<title>CarouselModule</title>
<polygon fill="#8dd3c7" stroke="#000000" points="427.8118,-122 424.8118,-126 403.8118,-126 400.8118,-122 318.1882,-122 318.1882,-86 427.8118,-86 427.8118,-122"/>
<text text-anchor="middle" x="373" y="-99.8" font-family="Times,serif" font-size="14.00" fill="#000000">CarouselModule</text>
</g>
<!-- CarouselModule&#45;&gt;StopsModule -->
<g id="edge7" class="edge">
<title>CarouselModule&#45;&gt;StopsModule</title>
<path fill="none" stroke="#000000" d="M373,-122.2667C373,-140.5552 373,-166 373,-166 373,-166 599.6918,-166 599.6918,-166"/>
<polygon fill="#000000" stroke="#000000" points="599.6919,-169.5001 609.6918,-166 599.6918,-162.5001 599.6919,-169.5001"/>
</g>
<!-- MatDesignModule -->
<g id="node9" class="node">
<title>MatDesignModule</title>
<polygon fill="#8dd3c7" stroke="#000000" points="299.7562,-122 296.7562,-126 275.7562,-126 272.7562,-122 178.2438,-122 178.2438,-86 299.7562,-86 299.7562,-122"/>
<text text-anchor="middle" x="239" y="-99.8" font-family="Times,serif" font-size="14.00" fill="#000000">MatDesignModule</text>
</g>
<!-- MatDesignModule&#45;&gt;StopsModule -->
<g id="edge8" class="edge">
<title>MatDesignModule&#45;&gt;StopsModule</title>
<path fill="none" stroke="#000000" d="M239,-122.1289C239,-142.5724 239,-173 239,-173 239,-173 599.6888,-173 599.6888,-173"/>
<polygon fill="#000000" stroke="#000000" points="599.6888,-176.5001 609.6888,-173 599.6888,-169.5001 599.6888,-176.5001"/>
</g>
<!-- StopsRoutingModule -->
<g id="node10" class="node">
<title>StopsRoutingModule</title>
<polygon fill="#8dd3c7" stroke="#000000" points="159.7856,-122 156.7856,-126 135.7856,-126 132.7856,-122 24.2144,-122 24.2144,-86 159.7856,-86 159.7856,-122"/>
<text text-anchor="middle" x="92" y="-99.8" font-family="Times,serif" font-size="14.00" fill="#000000">StopsRoutingModule</text>
</g>
<!-- StopsRoutingModule&#45;&gt;StopsModule -->
<g id="edge9" class="edge">
<title>StopsRoutingModule&#45;&gt;StopsModule</title>
<path fill="none" stroke="#000000" d="M92,-122.0109C92,-144.4852 92,-180 92,-180 92,-180 599.4042,-180 599.4042,-180"/>
<polygon fill="#000000" stroke="#000000" points="599.4043,-183.5001 609.4042,-180 599.4042,-176.5001 599.4043,-183.5001"/>
</g>
</g>
</svg>
