<?xml version="1.0" encoding="UTF-8" standalone="no"?>
<!DOCTYPE svg PUBLIC "-//W3C//DTD SVG 1.1//EN"
 "http://www.w3.org/Graphics/SVG/1.1/DTD/svg11.dtd">
<!-- Generated by graphviz version 2.40.1 (20161225.0304)
 -->
<!-- Title: dependencies Pages: 1 -->
<svg width="1319pt" height="284pt"
 viewBox="0.00 0.00 1319.00 284.00" xmlns="http://www.w3.org/2000/svg" xmlns:xlink="http://www.w3.org/1999/xlink">
<g id="graph0" class="graph" transform="scale(1 1) rotate(0) translate(4 280)">
<title>dependencies</title>
<polygon fill="#ffffff" stroke="transparent" points="-4,4 -4,-280 1315,-280 1315,4 -4,4"/>
<text text-anchor="start" x="634.5091" y="-42.4" font-family="sans-serif" font-weight="bold" font-size="14.00" fill="#000000">Legend</text>
<polygon fill="#ffffb3" stroke="transparent" points="421.5,-10 421.5,-30 441.5,-30 441.5,-10 421.5,-10"/>
<text text-anchor="start" x="445.129" y="-15.4" font-family="sans-serif" font-size="14.00" fill="#000000"> &#160;Declarations</text>
<polygon fill="#8dd3c7" stroke="transparent" points="534.5,-10 534.5,-30 554.5,-30 554.5,-10 534.5,-10"/>
<text text-anchor="start" x="558.2251" y="-15.4" font-family="sans-serif" font-size="14.00" fill="#000000"> &#160;Module</text>
<polygon fill="#80b1d3" stroke="transparent" points="620.5,-10 620.5,-30 640.5,-30 640.5,-10 620.5,-10"/>
<text text-anchor="start" x="644.2812" y="-15.4" font-family="sans-serif" font-size="14.00" fill="#000000"> &#160;Bootstrap</text>
<polygon fill="#fdb462" stroke="transparent" points="717.5,-10 717.5,-30 737.5,-30 737.5,-10 717.5,-10"/>
<text text-anchor="start" x="741.1732" y="-15.4" font-family="sans-serif" font-size="14.00" fill="#000000"> &#160;Providers</text>
<polygon fill="#fb8072" stroke="transparent" points="813.5,-10 813.5,-30 833.5,-30 833.5,-10 813.5,-10"/>
<text text-anchor="start" x="837.2258" y="-15.4" font-family="sans-serif" font-size="14.00" fill="#000000"> &#160;Exports</text>
<g id="clust1" class="cluster">
<title>cluster_CarouselModule</title>
<polygon fill="none" stroke="#000000" stroke-dasharray="1,5" points="8,-70 8,-268 1303,-268 1303,-70 8,-70"/>
</g>
<g id="clust2" class="cluster">
<title>cluster_CarouselModule_declarations</title>
<polygon fill="none" stroke="#000000" points="401,-78 401,-130 1295,-130 1295,-78 401,-78"/>
</g>
<g id="clust10" class="cluster">
<title>cluster_CarouselModule_exports</title>
<polygon fill="none" stroke="#000000" points="519,-208 519,-260 669,-260 669,-208 519,-208"/>
</g>
<g id="clust11" class="cluster">
<title>cluster_CarouselModule_bootstrap</title>
<polygon fill="none" stroke="#000000" points="677,-208 677,-260 801,-260 801,-208 677,-208"/>
</g>
<g id="clust12" class="cluster">
<title>cluster_CarouselModule_providers</title>
<polygon fill="none" stroke="#000000" points="16,-78 16,-130 393,-130 393,-78 16,-78"/>
</g>
<!-- AppComponent -->
<g id="node1" class="node">
<title>AppComponent</title>
<polygon fill="#ffffb3" stroke="#000000" points="1286.9399,-122 1181.0601,-122 1181.0601,-86 1286.9399,-86 1286.9399,-122"/>
<text text-anchor="middle" x="1234" y="-99.8" font-family="Times,serif" font-size="14.00" fill="#000000">AppComponent</text>
</g>
<!-- CarouselModule -->
<g id="node7" class="node">
<title>CarouselModule</title>
<polygon fill="#8dd3c7" stroke="#000000" points="720.8118,-187 717.8118,-191 696.8118,-191 693.8118,-187 611.1882,-187 611.1882,-151 720.8118,-151 720.8118,-187"/>
<text text-anchor="middle" x="666" y="-164.8" font-family="Times,serif" font-size="14.00" fill="#000000">CarouselModule</text>
</g>
<!-- AppComponent&#45;&gt;CarouselModule -->
<g id="edge1" class="edge">
<title>AppComponent&#45;&gt;CarouselModule</title>
<path fill="none" stroke="#000000" d="M1234,-122.2921C1234,-144.2057 1234,-178 1234,-178 1234,-178 730.72,-178 730.72,-178"/>
<polygon fill="#000000" stroke="#000000" points="730.7201,-174.5001 720.72,-178 730.72,-181.5001 730.7201,-174.5001"/>
</g>
<!-- CarouselArrowsComponent -->
<g id="node2" class="node">
<title>CarouselArrowsComponent</title>
<polygon fill="#ffffb3" stroke="#000000" points="1163.573,-122 990.427,-122 990.427,-86 1163.573,-86 1163.573,-122"/>
<text text-anchor="middle" x="1077" y="-99.8" font-family="Times,serif" font-size="14.00" fill="#000000">CarouselArrowsComponent</text>
</g>
<!-- CarouselArrowsComponent&#45;&gt;CarouselModule -->
<g id="edge2" class="edge">
<title>CarouselArrowsComponent&#45;&gt;CarouselModule</title>
<path fill="none" stroke="#000000" d="M1077,-122.1061C1077,-141.3391 1077,-169 1077,-169 1077,-169 731.0028,-169 731.0028,-169"/>
<polygon fill="#000000" stroke="#000000" points="731.0029,-165.5001 721.0028,-169 731.0028,-172.5001 731.0029,-165.5001"/>
</g>
<!-- CarouselComponent -->
<g id="node3" class="node">
<title>CarouselComponent</title>
<polygon fill="#ffffb3" stroke="#000000" points="972.594,-122 841.406,-122 841.406,-86 972.594,-86 972.594,-122"/>
<text text-anchor="middle" x="907" y="-99.8" font-family="Times,serif" font-size="14.00" fill="#000000">CarouselComponent</text>
</g>
<!-- CarouselComponent&#45;&gt;CarouselModule -->
<g id="edge3" class="edge">
<title>CarouselComponent&#45;&gt;CarouselModule</title>
<path fill="none" stroke="#000000" d="M907,-122.027C907,-138.3976 907,-160 907,-160 907,-160 730.6866,-160 730.6866,-160"/>
<polygon fill="#000000" stroke="#000000" points="730.6867,-156.5001 720.6866,-160 730.6866,-163.5001 730.6867,-156.5001"/>
</g>
<!-- CarouselHandlerDirective -->
<g id="node4" class="node">
<title>CarouselHandlerDirective</title>
<polygon fill="#ffffb3" stroke="#000000" points="823.4314,-122 660.5686,-122 660.5686,-86 823.4314,-86 823.4314,-122"/>
<text text-anchor="middle" x="742" y="-99.8" font-family="Times,serif" font-size="14.00" fill="#000000">CarouselHandlerDirective</text>
</g>
<!-- CarouselHandlerDirective&#45;&gt;CarouselModule -->
<g id="edge4" class="edge">
<title>CarouselHandlerDirective&#45;&gt;CarouselModule</title>
<path fill="none" stroke="#000000" d="M690.595,-122.1061C690.595,-122.1061 690.595,-140.991 690.595,-140.991"/>
<polygon fill="#000000" stroke="#000000" points="687.0951,-140.9909 690.595,-150.991 694.0951,-140.991 687.0951,-140.9909"/>
</g>
<!-- PinsComponent -->
<g id="node5" class="node">
<title>PinsComponent</title>
<polygon fill="#ffffb3" stroke="#000000" points="642.9512,-122 537.0488,-122 537.0488,-86 642.9512,-86 642.9512,-122"/>
<text text-anchor="middle" x="590" y="-99.8" font-family="Times,serif" font-size="14.00" fill="#000000">PinsComponent</text>
</g>
<!-- PinsComponent&#45;&gt;CarouselModule -->
<g id="edge5" class="edge">
<title>PinsComponent&#45;&gt;CarouselModule</title>
<path fill="none" stroke="#000000" d="M627.0347,-122.1061C627.0347,-122.1061 627.0347,-140.991 627.0347,-140.991"/>
<polygon fill="#000000" stroke="#000000" points="623.5348,-140.9909 627.0347,-150.991 630.5348,-140.991 623.5348,-140.9909"/>
</g>
<!-- SlideComponent -->
<g id="node6" class="node">
<title>SlideComponent</title>
<polygon fill="#ffffb3" stroke="#000000" points="519.1109,-122 408.8891,-122 408.8891,-86 519.1109,-86 519.1109,-122"/>
<text text-anchor="middle" x="464" y="-99.8" font-family="Times,serif" font-size="14.00" fill="#000000">SlideComponent</text>
</g>
<!-- SlideComponent&#45;&gt;CarouselModule -->
<g id="edge6" class="edge">
<title>SlideComponent&#45;&gt;CarouselModule</title>
<path fill="none" stroke="#000000" d="M464,-122.027C464,-138.3976 464,-160 464,-160 464,-160 601.3359,-160 601.3359,-160"/>
<polygon fill="#000000" stroke="#000000" points="601.3359,-163.5001 611.3359,-160 601.3359,-156.5001 601.3359,-163.5001"/>
</g>
<!-- CarouselComponent  -->
<g id="node8" class="node">
<title>CarouselComponent </title>
<polygon fill="#fb8072" stroke="#000000" points="661.0946,-252 526.9054,-252 526.9054,-216 661.0946,-216 661.0946,-252"/>
<text text-anchor="middle" x="594" y="-229.8" font-family="Times,serif" font-size="14.00" fill="#000000">CarouselComponent </text>
</g>
<!-- CarouselModule&#45;&gt;CarouselComponent  -->
<g id="edge7" class="edge">
<title>CarouselModule&#45;&gt;CarouselComponent </title>
<path fill="none" stroke="#000000" stroke-dasharray="5,2" d="M636.3207,-187.1061C636.3207,-187.1061 636.3207,-205.991 636.3207,-205.991"/>
<polygon fill="#000000" stroke="#000000" points="632.8207,-205.9909 636.3207,-215.991 639.8207,-205.991 632.8207,-205.9909"/>
</g>
<!-- AppComponent  -->
<g id="node9" class="node">
<title>AppComponent </title>
<polygon fill="#80b1d3" stroke="#000000" points="793.439,-252 684.561,-252 684.561,-216 793.439,-216 793.439,-252"/>
<text text-anchor="middle" x="739" y="-229.8" font-family="Times,serif" font-size="14.00" fill="#000000">AppComponent </text>
</g>
<!-- CarouselModule&#45;&gt;AppComponent  -->
<g id="edge8" class="edge">
<title>CarouselModule&#45;&gt;AppComponent </title>
<path fill="none" stroke="#000000" stroke-dasharray="1,5" d="M702.5931,-187.1061C702.5931,-187.1061 702.5931,-205.991 702.5931,-205.991"/>
<polygon fill="#000000" stroke="#000000" points="699.0932,-205.9909 702.5931,-215.991 706.0932,-205.991 699.0932,-205.9909"/>
</g>
<!-- CarouselService -->
<g id="node10" class="node">
<title>CarouselService</title>
<ellipse fill="#fdb462" stroke="#000000" cx="311" cy="-104" rx="74.1335" ry="18"/>
<text text-anchor="middle" x="311" y="-99.8" font-family="Times,serif" font-size="14.00" fill="#000000">CarouselService</text>
</g>
<!-- CarouselService&#45;&gt;CarouselModule -->
<g id="edge9" class="edge">
<title>CarouselService&#45;&gt;CarouselModule</title>
<path fill="none" stroke="#000000" d="M311,-122.1061C311,-141.3391 311,-169 311,-169 311,-169 601.3092,-169 601.3092,-169"/>
<polygon fill="#000000" stroke="#000000" points="601.3093,-172.5001 611.3092,-169 601.3092,-165.5001 601.3093,-172.5001"/>
</g>
<!-- WindowWidthService -->
<g id="node11" class="node">
<title>WindowWidthService</title>
<ellipse fill="#fdb462" stroke="#000000" cx="121" cy="-104" rx="97.2741" ry="18"/>
<text text-anchor="middle" x="121" y="-99.8" font-family="Times,serif" font-size="14.00" fill="#000000">WindowWidthService</text>
</g>
<!-- WindowWidthService&#45;&gt;CarouselModule -->
<g id="edge10" class="edge">
<title>WindowWidthService&#45;&gt;CarouselModule</title>
<path fill="none" stroke="#000000" d="M121,-122.2921C121,-144.2057 121,-178 121,-178 121,-178 601.248,-178 601.248,-178"/>
<polygon fill="#000000" stroke="#000000" points="601.248,-181.5001 611.248,-178 601.248,-174.5001 601.248,-181.5001"/>
</g>
</g>
</svg>
